<?xml version="1.0" encoding="utf-8"?>
<!-- Generator: Adobe Illustrator 21.1.0, SVG Export Plug-In . SVG Version: 6.00 Build 0)  -->
<svg version="1.1" id="Layer_1" xmlns="http://www.w3.org/2000/svg" xmlns:xlink="http://www.w3.org/1999/xlink" x="0px" y="0px"
	 viewBox="0 0 1270.4219971 1468.1365967" style="enable-background:new 0 0 1270.4219971 1468.1365967;" xml:space="preserve">
<style type="text/css">
	.st0{fill:#2B323D;}
	.st1{fill:#EF0092;}
</style>
<path class="st1" d="M697.3887939,1468.4117432c-93.5840454,0-187.168335-0.0977783-280.7519531,0.1040039
	c-14.3195496,0.0307617-20.7695312-4.574585-20.075531-20.3967285c3.4946594-79.6716309,1.772644-159.4031982,1.0574646-239.1101074
	c-0.2309265-25.7369385-0.9463501-25.1702881,25.4966431-25.1572266c180.8217773,0.09021,361.6439209,0.0178223,542.46521-0.3410645
	c13.5410156-0.0267334,21.1878052,3.5819092,20.2128906,18.4577637c-0.3668823,5.6005859-1.2901001,12.2163086,6.0094604,14.5809326
	c6.4285889,2.0825195,10.8540039-2.3222656,15.3321533-5.9837646
	c29.0452881-23.7485352,57.9908447-47.6207275,87.1987305-71.1678467
	c10.2718506-8.2810059,12.9138184-14.9241943,0.3770752-24.1827393
	c-31.1013184-22.9682617-61.4831543-46.9093018-92.2310181-70.3587646
	c-4.9071655-3.7423096-9.7976685-10.0284424-16.5446777-7.0600586c-6.6777344,2.9379883-3.6287231,10.163208-3.199707,15.605957
	c0.9497681,12.0515137-4.6699219,16.9405518-16.293396,16.6409912
	c-93.5479736-2.4107666-187.3154297,2.2587891-280.6329346-5.1463623
	c-46.9752808-3.7279053-90.7581177-22.3668213-129.8619995-49.1045532
	c-107.2503357-73.3336182-163.9550781-174.175293-156.7866516-305.3887329
	c7.6824646-140.6243286,99.9302063-264.6002808,244.3598938-304.7246094
	c25.8984375-7.1949463,53.5751953-8.1949158,80.8153076-8.209137
	c165.8110352-0.0868835,331.6220093-0.2136536,497.4329224-0.4051208
	c10.3800049-0.0119629,20.7750244-0.4414673,31.1348877-1.1127319c12.9990234-0.8423157,19.7797852,4.9180603,19.8031006,17.9541931
	c0.1419678,79.1350098,0.1148682,158.2703552,0.3538818,237.4049988
	c0.0452881,15.005188-7.1380615,19.8929443-21.5861816,19.8466187
	c-129.399292-0.414917-258.8098145-1.3108521-388.1947632,0.0510864
	c-41.5344849,0.4372559-83.1069946,2.4185791-124.6954956,2.210022
	c-19.982605-0.1002197-23.1087646-3.4163208-21.4854126-23.2714233c0.3734131-4.5675049,2.053894-9.7318115-2.7493286-12.642395
	c-5.7693481-3.4959717-9.8269043,1.1533813-13.5175171,4.5783691
	c-30.0735474,27.9094849-61.0056763,54.7561646-94.4612427,78.6164551
	c-8.8625488,6.3206787-7.6402588,12.5709839,0.6516724,19.390564c31.6546021,26.0346069,62.9220581,52.5392456,94.4327393,78.749939
	c3.854248,3.2060547,7.9614868,7.8024292,13.6894531,4.6863403c5.5888672-3.0405273,4.6148071-8.9719238,3.9081421-13.9979248
	c-1.7023926-12.1083374-0.0042114-20.3640747,15.3396606-20.1477661
	c72.1967163,1.0176392,144.4151611,1.1595459,216.6054077,1.401123
	c69.392334,0.2322388,128.6126709,26.1608276,182.7243652,65.0974121
	c58.7724609,42.2902832,100.4812012,99.456604,121.2694092,168.7487183
	c30.824707,102.7462158,19.47229,201.4512939-41.8771973,291.2884521
	c-52.0440674,76.2109375-124.0621338,124.9554443-214.5269165,143.8572998
	c-43.6585693,9.1221924-88.6377563,6.0118408-133.0777588,6.4327393
	c-56.0352783,0.5308838-112.0794067,0.1280518-168.1196289,0.1280518
	C697.3895264,1467.0270996,697.3892212,1467.7194824,697.3887939,1468.4117432z"/>
<path class="st1" d="M277.7876892,1068.5646973c0,127.1156006-0.164032,254.2316895,0.2323303,381.3459473
	c0.0436401,14.0130615-5.9842224,18.2996826-18.5722961,18.2249756
	c-79.1514435-0.4693604-158.3037262-0.9255371-237.4560394-0.9916992
	c-14.6502781-0.0123291-22.0558376-4.0900879-21.9912624-20.7285156
	c0.9150803-235.725708-0.1980103-471.4729004,2.8076994-707.1685181
	c0.9116411-71.4881592,6.5032578-143.3674316,27.985302-213.1977539
	C61.625946,425.8237,108.8748932,335.3378601,177.001297,255.5001526
	C257.7387695,160.8834381,355.8878784,90.745285,471.4168701,45.3767662
	C546.078064,16.0571079,622.9008179-0.9461469,704.3255005,0.2062548
	c166.958313,2.3629498,333.9662476,1.2579807,500.9537964,1.4536102
	c14.4215088,0.0169042,28.8684082-0.5415987,43.2596436-1.4950112c16.9212646-1.1210798,21.9541016,3.2429254,21.8823242,20.2872105
	c-0.2947998,69.9050827-0.6263428,139.8100281-0.8531494,209.7153625
	c-0.1497803,46.1549072-0.0795898,45.868103-46.4665527,45.7443237
	c-167.5472412-0.4470215-335.079834-0.8840332-502.6428223,0.5888367
	c-130.4209595,1.1463623-233.5260925,53.0726013-319.8793945,147.2983704
	c-56.5687561,61.7258911-92.1542664,132.6321411-110.1100464,214.21875
	c-9.8106995,44.5772095-12.1752319,89.1325684-12.3719788,134.1328125
	c-0.4321289,98.8030396-0.1340332,197.6092529-0.1340332,296.4141846
	C277.9047852,1068.5646973,277.8461914,1068.5646973,277.7876892,1068.5646973z"/>
</svg>
